# xmcd
# 
# Track frame offsets:
#     150
#     12263
#     23572
#     35897
#     49310
#     60885
#     74897
#     85045
#     95349
#     107750
#     119587
#     131600
#     145031
#     154539
#     166003
# 
# Disc length: 2440
# 
# Revision: 1
# Processed by: cddbd v1.5.2PL0 Copyright (c) Steve Scherf et al.
# Submitted via: fre:ac v1.1beta1pre5
# 
DISCID=c209860f
DTITLE=Various Artist - Nashville Country [CD1 of 2)
DYEAR=2007
DGENRE=Country
TTITLE0=David Housten - Crazy
TTITLE1=Johnny Lee - Ramblin' Rose
TTITLE2=Hawkshow Hawkins - Lonesome
TTITLE3=Jimmy Dean - Big Bad John
TTITLE4=Flatt and Scrugs - Foggy Mountain Breakdown
TTITLE5=Patti Page - Tennessee Waltz
TTITLE6=Skeeter Davis - My Last Dance With You
TTITLE7=Buck Owens - Act Naturally
TTITLE8=Bill Anderson - Still (I Love You)
TTITLE9=Stonewall Jackson - Waterloo
TTITLE10=Jean Shephard - Dear John Letter
TTITLE11=Various Artist - Almost Persuaded
TTITLE12=Little Jimmy Dickens - May the Bird of Paradise fly up your nose
TTITLE13=Bobby Bare - Please don't tell me how the story ends
TTITLE14=Ray Stevens - Mr Buisnessman
EXTD=YEAR: 2007
EXTT0=
EXTT1=
EXTT2=
EXTT3=
EXTT4=
EXTT5=
EXTT6=
EXTT7=
EXTT8=
EXTT9=
EXTT10=
EXTT11=
EXTT12=
EXTT13=
EXTT14=
PLAYORDER=
